<?xml version="1.0" encoding="UTF-8"?>
<svg id="Calque_2" data-name="Calque 2" xmlns="http://www.w3.org/2000/svg" viewBox="0 0 232.7 163.19">
  <defs>
    <style>
      .cls-1 {
        letter-spacing: -.01em;
      }

      .cls-2 {
        letter-spacing: -.02em;
      }

      .cls-3 {
        fill: #ecad45;
      }

      .cls-4 {
        fill: #fff;
        font-size: 21.7px;
      }

      .cls-5 {
        font-family: Ubuntu-Bold, Ubuntu;
      }

      .cls-6 {
        letter-spacing: 0em;
      }

      .cls-7 {
        letter-spacing: 0em;
      }

      .cls-8 {
        font-family: Ubuntu-Regular, Ubuntu;
      }
    </style>
  </defs>
  <g id="Calque_1-2" data-name="Calque 1">
    <path class="cls-3" d="M219.33,121.58c-2.46,3.33-10.66,13.91-26.61,23.6-23.26,14.13-49.96,20.03-79.88,17.4-14.34-1.26-28.02-3.99-41.03-8.56-20.68-7.26-38.68-17.21-52.48-31.22C8.73,112.06,1.87,100.1,.33,86.73c-1.73-15.02,2.97-25.15,23.93-30.48,7.73-1.97,15.6-3.61,23.43-5.34,20.79-4.59,39.72-11.62,54.51-24.04,8.57-7.19,15.7-15.14,20.88-24.03C124.34,.69,125.95-.06,129.08,0c6.3,.14,12.64,.67,18.61,1.81,21.71,4.14,39.51,11.36,53.33,21.71,19.75,14.8,26.53,31.49,28.93,39.15,1.39,4.43,9.41,31.85-10.62,58.91Z"/>
    <text class="cls-4" transform="translate(4.61 89.06)"><tspan class="cls-8"><tspan x="0" y="0">Sou</tspan><tspan class="cls-1" x="36.8" y="0">t</tspan><tspan x="45.31" y="0">enez l’association,</tspan></tspan><tspan class="cls-5"><tspan class="cls-7" x="41.79" y="26.04">f</tspan><tspan x="50.78" y="26.04">ai</tspan><tspan class="cls-2" x="69.05" y="26.04">t</tspan><tspan class="cls-6" x="78.25" y="26.04">es un don </tspan></tspan><tspan class="cls-8"><tspan x="72.67" y="52.08">en ligne</tspan></tspan></text>
  </g>
</svg>