<?xml version="1.0" encoding="UTF-8"?>
<svg xmlns="http://www.w3.org/2000/svg" viewBox="0 0 192.54 99.25">
  <defs>
    <style>
      .cls-1, .cls-2, .cls-3 {
        fill: #ebad41;
      }

      .cls-4, .cls-5, .cls-6 {
        fill: #d33856;
      }

      .cls-7, .cls-8 {
        fill: #4da777;
      }

      .cls-8, .cls-5, .cls-2, .cls-6, .cls-3 {
        mix-blend-mode: multiply;
      }

      .cls-6 {
        opacity: .8;
      }

      .cls-3 {
        opacity: .5;
      }

      .cls-9 {
        letter-spacing: -.04em;
      }

      .cls-10 {
        fill: #1d1d1b;
        font-family: BambinoNew-Bold, 'Bambino New';
      }

      .cls-11 {
        font-size: 20px;
      }

      .cls-12 {
        isolation: isolate;
      }

      .cls-13 {
        font-size: 14px;
      }
    </style>
  </defs>
  <g class="cls-12">
    <g id="Calque_2" data-name="Calque 2">
      <g id="Calque_1-2" data-name="Calque 1">
        <g>
          <g>
            <path class="cls-1" d="M89.38,43.07c-1.3-1.57-1.66-3.72-1.66-3.72,.39,.39,1.12,1.1,3.14,.78,2.02-.32,3.23,.64,3.23,.64-1.55-2.21-3.46-.22-5.91-1.9-1.9-1.3-2.16-5.89-.11-7.3,2.06-1.42,4.23-.24,8.46-.29-.15-.54-.3-1.09-.44-1.64-4.05-.3-7.07-3.45-6.95-5.72,.13-2.56,3.44-4.76,7.28-5.68,3.83-.93,4.97,.99,4.97,.99-.54-2.2-2.48-1.94-2.48-1.94,1.81-.93,1.89-3.08,1.89-3.08,0,0-.9,2.82-4.13,3.21-2.67,.32-3.51,.97-3.51,.97,.43-.45,.7-1.33,1.53-2.54,.85-1.23,2.26-1.61,2.26-1.61-1.87-.11-2.95,1.66-2.95,1.66,.32-1.16-.06-1.53,.24-3.7,.3-2.17,1.94-3.4,1.94-3.4-3.01,1.36-2.73,5.36-2.73,5.36-.69-2.05-2.22-2.22-2.22-2.22,0,0,1.25,.73,1.68,2.35,.55,2.11,.6,5.17-5.36,6.22-4.73,.84-6.14-2.24-6.01-4.76,.13-2.52,.93-3.46,3.54-4.24,2.57-.76,2.92-1.35,4.09-2.14,2.02-1.37,4.42-.53,4.42-.53-1.13-1.07-3.46-.47-3.46-.47,.5-1.78,2.34-2.41,2.34-2.41,0,0-1.82-.02-2.92,2.07-.91,1.72-2.5,1.91-2.5,1.91,1.47-3.15-.03-6.93-.03-6.93,.61,3.49-.18,6.1-.18,6.1,0,0-.06-.68-.82-1.86-.76-1.18-.45-2.39-.45-2.39-.65,1.08-.23,2.16,.4,3.18,.68,1.1,.1,2.29-1.34,2.73-1.44,.44-2.21,1-2.21,1,0,0-.52-1.65,.15-3.81,.66-2.16,2.31-3.31,2.57-4.5,.47-2.15-.76-3.46-.76-3.46,.95,3.25-.44,3.94-1.63,5.75-1.13,1.71-1.31,3.83-1.31,3.83-.08-1.47-.59-2.25-1.61-3.42-1.02-1.17-.31-2.39-.31-2.39-.8,.42-.61,1.56-.61,1.56-1.37-1.32-.82-3.39-.82-3.39-.41,.49-.63,1.49-.28,2.57,.19,.6,.6,1.25,1.38,1.78,1.16,.79,1.19,1.97,1.19,1.97-.31-.42-1.21-.94-2.91-1.21-1.7-.27-1.97-1.94-1.97-1.94,.11,1.42,.48,2,2.45,2.5,2.17,.55,3.55,2.03,3.04,5.22-.52,3.18-2.3,7.44-5.68,7.84-1.29,.15-3.49-.19-5.23-1.96-1.74-1.77-1.57-4.05-.95-5.55,.62-1.51,.56-2.63-.47-3.55-1.03-.93-.73-2.43-.73-2.43,0,0-.71,1.08,.5,2.82,1.21,1.74,.09,2.97,.09,2.97,0,0-.06-1.14-1.68-2.8-1.61-1.66-1.03-4.17-1.03-4.17-1.19,2.62,1.03,4.97,1.03,4.97-.98-.63-2.21-.52-2.21-.52,3,.78,3.52,3.1,3.39,4.15s.02,2.08,.02,2.08c-2.78-2.1-3.78-2.73-4.54-5.54-.76-2.81-2-3.25-2-3.25,0,0,.02,.03,.05,.07,.2,.31,.93,1.52,1.2,2.92,.45,2.35,1.25,2.71,1.25,2.71-2.02-1.21-3.81-.32-3.81-.32,4.52,.02,8.44,5.19,8.44,5.19,0,0-2.58-.8-4.43,.84-1.85,1.64-3.92,.9-4,.19-.31-2.6-2.09-2.82-2.09-2.82,1.72,1.87,1.87,3.34,1.01,3.59-2.21,.66-2.8,2.15-2.8,2.15,1.48-1.2,3.87-2.13,5.12-1.79,1.25,.34,2.26-.09,2.93-.58,.67-.5,1.44-.67,1.44-.67,0,0-.6,.52-.65,1.85-.07,2.18-1.51,3.01-1.51,3.01,2.86-1.18,2-3.85,2.59-4.44,1.83-1.85,4.93-.08,5.83,2.25,.98,2.53,.58,7.66-1.36,8.8-3.67,2.16-6.35,2.2-6.37-1.12-.02-2.33-1.23-3.29-1.23-3.29,1.21,2.3,.32,4.13,.32,4.13-1.89-.9-2.48-3.96-2.48-3.96,0,0-.24,1.72,1.14,3.79,.98,1.47,3.42,2.73,3.42,2.73,0,0-1.89,.8-4.37,1.49s-4.65-1.96-4.65-1.96c.95,2.73,3.98,2.56,3.98,2.56-2.69,1.4-1.81,4.28-1.81,4.28,.81-3.37,4.24-4.65,4.24-4.65-.32,.41-.19,1.38-.22,2.67-.02,1.29-.93,2.02-.93,2.02,.93-.39,1.49-1.27,1.49-2.15s-.26-1.4,.34-2.39,3.68-1.36,3.68-1.36c0,0-.39,.3-.52,2.11-.13,1.81,.22,2.48-.48,2.99-1.87,1.38-1.69,2.54-1.69,2.54,.88-1.49,2.43-2.52,2.43-2.52,1.08,1.38,.71,3.47,.71,3.47,0,0,.65-1.55,.22-2.78-.43-1.23-.75-1.64-.34-3.98,.41-2.35,1.79-2.56,3.1-2.8,3-.54,5.28,1.03,5.67,2.81,.39,1.78-.27,3.8-3.22,4.57-2.95,.78-3.57,2.82-3.57,2.82,1.33-1.96,3.96-2.05,3.96-2.05-.17,1.01-1.83,2.63-4.89,3.49-3.06,.86-3.34,2.82-3.34,2.82,1.4-2.04,4.52-2.26,4.52-2.26,0,0-1.67,1.44-2.32,2.8-1.23,2.54-.22,4.5-.22,4.5-.95-4.97,6.83-9.99,6.83-9.99-.98,1.21-1.13,3.49-.31,5.6s-.21,3.29-.21,3.29c1.44-1.39,.92-2.92,.44-4.33-.48-1.4-.11-2.44-.11-2.44,0,0,.03,.6,1.02,.87,.98,.27,1.31,1,1.31,1-.31-1.53-1.39-1.21-1.74-2.5-.36-1.29,.7-1.73,2.21-4.73,.83-1.65,1.85-2.52,4.82-3.57,3.58-1.27,4.15,.41,5.12,3.14s-.11,3.83-2.13,5.21c-2.02,1.38-1.79,3.68-1.79,3.68,.8-3.49,3.22-3.64,3.22-3.64,0,0-.27,.79-.05,2.03,.33,1.83-.36,3.18-1.63,4.76s-.45,2.99-.45,2.99c0,0-.26-.5,.13-1.68,.39-1.18,1.84-1.89,2.31-3.81,.37-1.5,.39-2.16,.39-2.16,1.31,.95,1.55,2.42,1.55,2.42,.21-1.79-1.55-2.62-1.63-3.97s1.07-2.53,1.07-2.53c0,0,.47,1.49,1.53,2.58,1.07,1.1,1.4,1.68,1.32,3.25-.08,1.57,1,2.12,1,2.12-.44-.66-.63-1.74-.48-2.74,.14-.98-.44-1.88-.58-2.07,.1,.13,.53,.58,1.91,.9,1.8,.42,2.43,1.46,2.43,1.46-.5-2.22-3.87-2.41-5.4-4.26Z"/>
            <path class="cls-4" d="M113.89,23.59c-4.88,3.29-11.31,5.43-16.16,6.01-.15,.02-.3,.02-.46,.03,.14,.53,.29,1.06,.43,1.59,1.73-.12,3.77-.45,6.22-1.21,8.79-2.72,8.83-4.9,15.36-7.23,3.07-1.1,6.53-1.14,9.66-.49v-1.34c-4.84-1.21-10.24-.62-15.07,2.64Z"/>
            <path class="cls-7" d="M157.37,17.07c-.48-.26-.89,.31-1.07,.45-.17,.14-.56-.02-2.99,.53-2.33,.53-3.4,1.42-3.4,1.42,1.28-1.36,1.24-3.73,1.33-3.82,.21-.2,.55-.9,.11-1.32-.51-.49-1.44-.23-1.37,.51,.06,.65,.57,.77,.55,.97-.16,2-1.44,5.55-5.73,6.78-4.28,1.23-9.47-.52-9.47-.52,6.97-1.55,10.59-6.91,13.93-8.65,1.85-.97,3.9-.55,3.95-.44,.05,.11,.39,.77,1.03,.57,.65-.21,.81-1.18,.18-1.45-.63-.27-.98,.24-1.16,.31s-1.73-.36-3.58,.19c-1.86,.55-3.33,2.13-3.33,2.13,0,0,.18-2.34,.95-3.62,.77-1.28,1.95-1.55,2.04-1.44,.11,.14,.48,.44,.93,.36s.61-.54,.48-1c-.13-.44-.65-.76-1.05-.56-.4,.2-.39,.67-.48,.69,0,0-1.37,.17-2.29,1.48-.95,1.36-.87,3.1-1.67,4.38-.8,1.28-1.84,1.86-2.17,1.8-.33-.06-.33-.56-.41-1.7-.08-1.14-.21-1.84-.06-1.92,.7-.37,.76-1.38,.08-1.64-.69-.26-1.4,.13-1.36,.88,.04,.75,.53,.73,.57,.88,.17,.6,.45,3.16-.26,4.46-1.34,2.43-6.87,4.2-11.56,3.41v1.37c4.05,1.1,7.35,3.37,8.14,6.07,.87,2.99-.96,4.18-.66,7.19,.27,2.7,2.1,3.89,2.1,3.89-.14,.38-.09,1.02,.55,1.05,.64,.03,.95-.55,.6-1-.34-.45-.88-.32-.88-.32,0,0-1.25-.88-1.77-3.21s.88-3.61,.88-3.61c.21,1.7,.83,3.94,2.57,4.86,1.4,.74,1.62,1.53,1.62,1.53,0,0-.37,.53,.06,.94,.51,.48,1.51,.04,1.23-.66-.22-.55-.8-.43-.8-.43,0,0-.13-1.08-1.27-1.64-1.18-.57-1.51-1.72-1.51-1.72,0,0,.79,.42,1.94,.4,1.15-.02,1.63,.55,1.63,.55-.13,.35-.08,1.19,.69,1.23,.77,.03,1.08-.86,.58-1.39-.5-.53-1.06-.1-1.06-.1-1.25-1.42-3.55-.56-4.37-2.48-.82-1.92-.04-3.05-.72-5.39s-2.28-3.41-2.28-3.41c2.55,.65,4.75,2.07,5.62,4.85,.69,2.2,2.07,2.92,2.21,3.08s-.05,.27,.11,.77c.16,.5,.71,.55,1.11,.36,.4-.19,.57-.68,.31-1.07-.26-.39-.58-.21-.87-.26-.67-.11-1.91-1.69-2.41-3.25-.55-1.71-1-2.57-1.97-3.21-.72-.48-1.21-.92-1.21-.92,1.31,.79,4.08,1.02,6.1,1.24,2.02,.23,2.97,1.2,3.03,1.45,.17,.63,1.01,.88,1.47,.31,.47-.57,.22-1.07-.27-1.19-.59-.16-.94,.29-1.07,.16-1.98-1.98-4.46-1.45-6.94-1.99-2.14-.46-3.36-1.4-3.36-1.4,2.29,.48,4.81-.52,9.45-.97,4.63-.45,6.37,.74,6.48,.91,.11,.17-.06,.87,.58,.93,.65,.05,.98-.52,.69-1-.29-.48-.82-.29-1-.37s-.97-.86-3.23-1.26c-2.17-.39-4.29-.11-4.29-.11,0,0,.51-.87,1.96-1.84,2.27-1.51,6.37-2.25,6.48-2.03s.41,.64,.89,.27c.48-.37,.6-1.04,.12-1.3Z"/>
            <path class="cls-8" d="M146.34,33.8c-.34,.13-.65-.13-.81-.4-.16-.27,.09-.52-.17-.75-.8-.69-1.22-1.04-1.63-1.83-.38-.74-.58-1.53-.89-2.3-.15-.37-.33-.73-.56-1.06-.34-.49-.78-.87-1.27-1.22-.54-.39-1.04-.8-1.65-1.08-.42-.19-.83-.45-1.29-.52-.2-.03-.53-.1-.72-.02-.13,.06-.07,.17,.06,.29,2.54,.65,4.72,2.07,5.59,4.84,.69,2.2,2.07,2.92,2.21,3.08s-.05,.27,.11,.77,.71,.55,1.11,.36c.24-.11,.39-.33,.42-.57-.12,.17-.31,.32-.52,.4Z"/>
            <path class="cls-8" d="M150.59,28.5c-.3-.01-.58-.11-.74-.38-.11-.17-.14-.4-.1-.6-.5-.26-1.24-.78-1.32-.82-.47-.25-.95-.43-1.45-.59-.26-.03-.51-.05-.75-.07-.92-.07-1.83-.18-2.74-.32-1.37-.22-2.63-.67-3.9-1.21,.18,.17,.37,.34,.55,.55,.17,.19,.38,.32,.59,.43,1.42,.61,3.84,.81,5.65,1.01,2.02,.23,2.97,1.2,3.03,1.45,.14,.52,.72,.77,1.19,.54,0,0,0,0-.01,0Z"/>
            <path class="cls-8" d="M157.25,18.09c-.28,.18-.71,.01-.68-.34,0-.03,0-.05,.01-.08-.15,.04-.31,.09-.44,.11-.58,.09-1.19,.1-1.76,.24-.73,.18-1.43,.49-2.17,.63-.47,.18-.96,.33-1.4,.57-.03,.02-.06,.02-.09,.02-.2,.12-.39,.24-.58,.4-.03,.02-.06,.03-.08,.04-.02,.01-.04,.02-.06,.04-.01,0-.02,0-.03,0-.01,.03-.03,.05-.07,.07-.34,.19-.61,.38-.88,.66-.2,.22-.42,.41-.67,.56-.54,.6-1.1,1.11-1.93,1.45-1.03,.42-2.26,.76-3.43,.87-1.06,.31-2.43,.28-3.48,.29-.31,0-.28,.11-.13,.24,2.26,.42,4.77-.55,9.32-.99,4.63-.45,6.37,.74,6.48,.91s-.06,.87,.58,.93c.05,0,.1,0,.15,0-.28-.09-.49-.33-.36-.71-.07-.17-.06-.35,0-.5-.82-.58-2.72-.97-3.17-1.03-1.42-.22-2.85-.11-4.28-.24-.17-.02-.17-.16-.09-.27-.06,0-.09,.01-.09,.01,0,0,.51-.87,1.96-1.84,2.27-1.51,6.37-2.25,6.48-2.03s.41,.63,.89,.27c.27-.2,.42-.5,.42-.77-.06,.18-.2,.35-.43,.5Z"/>
            <path class="cls-8" d="M151.36,14.32c-.35-.33-.89-.32-1.18-.04,.06-.02,.13-.04,.19-.04,.2-.03,.36,0,.54,.1,.41,.22,.39,.8,.05,1.06-.01,.02-.03,.05-.04,.07,0,.05,0,.13-.02,.24,.01,.16,0,.31-.01,.47-.08,.33-.17,.64-.3,.95-.07,.75-.32,1.58-.78,2.19,0,.03,0,.07,0,.1,.05-.04,.11-.04,.16-.02,1.22-1.37,1.18-3.67,1.28-3.75,.21-.2,.55-.9,.11-1.32Z"/>
            <path class="cls-8" d="M154.65,12.87c-.07,.05-.15,.07-.22,.09-.28,.16-.65,.19-.74-.03,0-.01,0-.02-.01-.03-.02-.04-.3-.08-.34-.09-.11-.03-.23-.06-.35-.09-.23-.05-.47-.1-.7-.13-.48-.06-.97-.06-1.45-.01-.48,.05-.95,.15-1.41,.3-.45,.15-.87,.37-1.25,.66-.41,.31-.77,.68-1.12,1.06-.04,.05-.08,.1-.13,.14-.09,.09-.53,.41-.58,.13-.01-.06,0-.12,0-.18,0-.09,.19-2.36,.95-3.61,.77-1.28,1.95-1.55,2.04-1.44,.11,.14,.48,.44,.93,.36,.4-.07,.58-.46,.51-.87-.01,.03-.02,.07-.04,.1-.19,.45-.76,.65-1.16,.34-.64-.5-2.25,.69-2.53,1.21-.33,.62-.5,1.28-.73,1.94-.42,1.68-.74,3.38-2.41,4.29-.11,.06-.21,.09-.3,.1-.37,.09-.74-.19-.75-.54-.1-.25-.12-.72-.17-1.48-.08-1.14-.21-1.84-.06-1.92,.7-.37,.76-1.38,.08-1.64-.32-.12-.64-.1-.89,.03,.18,0,.37,.06,.55,.18,.5,.33,.35,.88-.06,1.16-.04,.09-.11,.18-.18,.26,0,.02,0,.05,0,.09,0,.02,0,.03,0,.05,0,.02,.02,.04,.02,.07,.17,.76,.25,1.52,.25,2.29,.1,.81,.14,1.71-.17,2.39-.38,.83-1.21,1.26-1.98,1.69-.08,.04-.15,.07-.23,.09-.67,.43-1.36,.79-2.12,1.06-.84,.29-1.73,.75-2.61,.94-.1,.08-.21,.17-.31,.25,.02,0,.05,.02,.07,.03,.09-.03,.18-.05,.28-.06,6.96-1.56,10.58-6.91,13.91-8.65,1.85-.97,3.9-.55,3.95-.44s.39,.77,1.03,.57c.37-.12,.58-.49,.57-.84-.04,.07-.11,.14-.17,.18Z"/>
            <g>
              <path class="cls-2" d="M86.05,43.03c.84-.58,1.42-1.97,1.23-3.55s-1-3.58-1.91-4.65-3.26-.29-5.01,.19-3.04,1.42-3.65,2.81-1.51,3.71-1.51,3.71h0c.4-.6,.92-1.38,1.51-2.56,.83-1.65,1.85-2.52,4.82-3.57,3.58-1.27,4.15,.41,5.12,3.14s-.11,3.83-2.13,5.21c-.48,.33-.84,.71-1.1,1.1,.89-.96,2.08-1.47,2.61-1.84Z"/>
              <path class="cls-2" d="M67.27,32.65c1.46-.06,3.81-1.29,4.93-2.43s1.4-3.92,.71-7.1c-.69-3.18-3.04-4.05-4.63-4.33-1.59-.28-1.9,.87-1.9,.87h0c1.85-1.59,4.79,.14,5.67,2.4,.98,2.53,.58,7.66-1.36,8.8-3.15,1.85-5.56,2.14-6.2,.1,0,0,0,0,0,0,.3,1.54,1.32,1.76,2.78,1.69Z"/>
              <path class="cls-2" d="M76.85,35.76c-.1-1.1-.48-3.13-3.81-3.49-3.33-.35-4.33,1.09-4.33,1.09h0c.58-.43,1.29-.55,1.98-.67,3-.54,5.28,1.03,5.67,2.81,.37,1.69-.21,3.59-2.79,4.45h0c3.18-.68,3.37-3.09,3.28-4.19Z"/>
              <path class="cls-2" d="M81.05,15.23c-.48,2.58,.23,4.97,3.58,5.75s6.26-.77,7.23-1.68,1.81-2.1,1.58-3.91c-.17-1.34-.69-2.61-1.78-3.14,.4,.36,.98,1.02,1.25,2.02,.55,2.11,.6,5.17-5.36,6.22-4.73,.84-6.14-2.24-6.01-4.76s.93-3.46,3.54-4.24c1.41-.42,2.16-.79,2.73-1.16-.02,0-1.48,.34-3.22,.89-1.74,.55-3.07,1.42-3.55,4Z"/>
              <path class="cls-5" d="M128.48,21.62c-.46-.15-.55-.55-.41-.89-2.37-.48-4.86-.52-7.34-.03,.18,.41-.13,1.06-.74,1.06-.52,0-.71-.37-.65-.72-1.86,.52-3.69,1.36-5.45,2.55-.35,.24-.71,.46-1.07,.69,.31,.39,0,1.17-.67,1.17-.37,0-.57-.18-.63-.41-1.89,1.04-3.91,1.94-5.94,2.65,.33,.39,.02,1.18-.66,1.18-.54,0-.72-.38-.64-.75-2.3,.73-4.55,1.23-6.53,1.47-.11,.01-.23,.02-.34,.03,.02,.12,0,.24-.02,.34,.11,.42,.23,.83,.34,1.25,1.73-.12,3.77-.45,6.22-1.21,8.79-2.72,8.83-4.9,15.36-7.23,3.07-1.1,6.53-1.14,9.66-.49v-.52c-.16-.05-.32-.09-.47-.14Z"/>
              <path class="cls-2" d="M96.36,30.62c-.32,.05-.71,.07-1.21,.04-2.45-.13-6.62-1.29-7.96,.77-1.34,2.07-.52,4.29-.52,4.29-.17-1.63,.26-3.38,1.4-4.17,2.06-1.42,4.23-.24,8.46-.29-.06-.21-.12-.43-.18-.64Z"/>
              <path class="cls-8" d="M140.47,40.59c-.41-.07-.65-.5-.45-.92-.35-.33-.8-.6-1.13-1.09-.23-.34-.49-.78-.65-1.24-.28-.44-.29-1.05-.37-1.55,0-.04,0-.08,0-.12-.05-.44,0-.89,.1-1.36,.03-.15,.08-.3,.13-.45,.13-.7,.38-1.39,.63-2.08,.02-.04,.04-.08,.06-.11,.11-.62,.21-1.24,.24-1.88-.06-.56-.17-1.11-.32-1.64-.29-.7-.65-1.37-1.11-1.98-.75-.99-1.71-1.87-2.82-2.44-1.17-.61-2.46-.97-3.72-1.34-.32-.09-.64-.18-.96-.27v.45c4.05,1.1,7.35,3.37,8.14,6.07,.87,2.99-.96,4.18-.66,7.19,.27,2.7,2.1,3.89,2.1,3.89-.14,.38-.09,1.02,.55,1.05,.1,0,.19,0,.27-.03,0-.04-.02-.09-.03-.14Z"/>
              <path class="cls-2" d="M96.09,29.62c-4.05-.3-7.07-3.45-6.95-5.71,.09-1.8,1.76-3.43,4.08-4.55h0s-3.29,.74-4.55,3.48c-1.26,2.74,1.68,5.65,4.1,6.43,1.32,.42,2.52,.49,3.36,.47-.01-.04-.02-.08-.03-.12Z"/>
            </g>
            <path class="cls-2" d="M75.65,27.37c-.16,3.62,3.39,4.87,6.77,4.26,3.61-.65,6.15-6.45,0-8.15-4.12-1.13-6.7,2.34-6.77,3.88Z"/>
            <path class="cls-1" d="M75.65,26.98c-.15,3.41,3.18,4.58,6.36,4,3.39-.61,5.78-6.06,0-7.65-3.87-1.07-6.3,2.2-6.36,3.65Z"/>
            <path class="cls-3" d="M82.01,23.33c-.64-.18-1.25-.23-1.81-.2,.25,.02,.51,.06,.78,.14,4.08,1.12,2.39,4.96,0,5.4-2.24,.41-4.59-.42-4.49-2.82,.02-.4,.29-1,.78-1.53-1.02,.85-1.6,1.97-1.63,2.67-.15,3.41,3.18,4.58,6.36,4,3.39-.61,5.78-6.06,0-7.65Z"/>
            <path class="cls-4" d="M97.56,28.32c-.19,.18,.56,3.66,1.12,3.92s5.81-1.08,6.37-1.51c.56-.43-.77-3.71-1.08-3.94-.3-.23-5.42,.63-6.42,1.53Z"/>
            <path class="cls-4" d="M105.04,26.46c-.17,.38,.9,3.75,1.65,4.03,.56,.21,5.71-2.16,5.81-2.8s-.65-3.46-1.49-3.81-5.41,1.31-5.97,2.58Z"/>
            <path class="cls-4" d="M112.05,22.86c-.15,.43,.84,3.83,1.49,3.95,.65,.12,6.04-2.59,6.36-2.96,.32-.37-.52-3.41-1.13-3.7s-6.43,1.87-6.72,2.71Z"/>
            <path class="cls-4" d="M120.66,19.16c-.61,.44-.19,4.05,.46,4.29,.65,.23,6.39,.23,6.94-.19s.42-3.29-.19-3.75-6.63-.77-7.21-.36Z"/>
            <path class="cls-6" d="M103.97,26.79s1.2,3.3-2.41,4.33c-3.61,1.03-4-2.8-4-2.8-.19,.18,.56,3.66,1.12,3.92s5.81-1.08,6.37-1.51c.56-.43-.77-3.71-1.08-3.94Z"/>
            <path class="cls-6" d="M111.01,23.88s1.45,3.23-1.68,4.71c-3.13,1.48-4.29-2.13-4.29-2.13-.17,.38,.9,3.75,1.65,4.03,.56,.21,5.71-2.16,5.81-2.8s-.65-3.46-1.49-3.81Z"/>
            <path class="cls-4" d="M118.76,20.13s.94,3.16-2.45,4.55-4.26-1.84-4.26-1.84c-.15,.43,.84,3.83,1.49,3.95,.65,.12,6.04-2.59,6.36-2.96s-.52-3.41-1.13-3.7Z"/>
            <path class="cls-6" d="M124.51,22.81c-4-.16-3.85-3.65-3.85-3.65-.61,.44-.19,4.05,.46,4.29,.65,.23,6.39,.23,6.94-.19s.42-3.29-.19-3.75c0,0,.65,3.46-3.36,3.29Z"/>
            <path class="cls-6" d="M98.55,29.11c.1,.77,2.49,.34,2.28-.39-.12-.42-2.38-.37-2.28,.39Z"/>
            <path class="cls-4" d="M98.55,28.71c.09,.77,2.3,.34,2.11-.39-.11-.42-2.2-.37-2.11,.39Z"/>
            <path class="cls-6" d="M108.91,28.86c.13,.77,2.53-.32,2.36-1.14-.17-.82-2.57-.13-2.36,1.14Z"/>
            <path class="cls-4" d="M108.76,28.5c.13,.77,2.53-.32,2.36-1.14-.17-.82-2.57-.13-2.36,1.14Z"/>
            <path class="cls-6" d="M114.86,22.58c.21,.81,2.52-.11,2.28-.77-.24-.67-2.52-.13-2.28,.77Z"/>
            <path class="cls-4" d="M114.69,22.3c.21,.81,2.52-.11,2.28-.77-.24-.67-2.52-.13-2.28,.77Z"/>
            <path class="cls-6" d="M122.71,21.18c-.06,.95,3.36,.86,3.36,0s-3.27-1.31-3.36,0Z"/>
            <path class="cls-4" d="M122.83,20.83c-.06,.95,3.36,.86,3.36,0s-3.27-1.31-3.36,0Z"/>
          </g>
          <path class="cls-8" d="M144.1,39.79c-.64,.06-.67-.41-.64-.79,.09-1.1-1.56-1.36-2.71-2.76-1.16-1.4-1.69-3.63-1.69-3.63,.21,1.7,.83,3.94,2.57,4.86,1.4,.74,1.62,1.53,1.62,1.53,0,0-.37,.53,.06,.94,.45,.43,1.29,.12,1.27-.45-.1,.15-.26,.26-.49,.29Z"/>
          <path class="cls-8" d="M145.17,37.14c-.52-.16-.42-.66-.42-.66-.15-.34-.79-.83-1.81-.83s-1.96-.16-1.96-.16c0,0,.79,.42,1.94,.4,1.15-.02,1.63,.55,1.63,.55-.13,.35-.08,1.19,.69,1.23,.56,.02,.87-.43,.82-.89-.15,.31-.51,.47-.88,.36Z"/>
          <path class="cls-2" d="M74.65,20.97c4.49,.1,6.49-5.25,6.33-8.15-.52,3.18-2.3,7.44-5.68,7.84-1.29,.15-3.49-.19-5.23-1.96-.37-.38-.65-.77-.86-1.18h0s.96,3.36,5.45,3.46Z"/>
        </g>
        <text class="cls-10" transform="translate(0 71.78)"><tspan class="cls-11"><tspan x="0" y="0">Sclé</tspan><tspan class="cls-9" x="42.26" y="0">r</tspan><tspan x="50.5" y="0">ose en Plaque</tspan></tspan><tspan class="cls-13"><tspan x="68.45" y="23">FRANCE</tspan></tspan></text>
      </g>
    </g>
  </g>
</svg>